<?xml version="1.0" standalone="no"?>
<!DOCTYPE svg PUBLIC "-//W3C//DTD SVG 20010904//EN"
 "http://www.w3.org/TR/2001/REC-SVG-20010904/DTD/svg10.dtd">
<svg version="1.0" xmlns="http://www.w3.org/2000/svg"
 width="287.000000pt" height="287.000000pt" viewBox="0 0 287.000000 287.000000"
 preserveAspectRatio="xMidYMid meet">
<metadata>
Created by potrace 1.11, written by Peter Selinger 2001-2013
</metadata>
<g transform="translate(0.000000,287.000000) scale(0.100000,-0.100000)"
fill="#000000" stroke="none">
<path d="M1222 2858 c-285 -34 -596 -196 -812 -424 -46 -49 -112 -133 -147
-186 -54 -82 -82 -136 -153 -293 -25 -54 -70 -211 -86 -300 -13 -69 -18 -145
-18 -245 1 -132 4 -158 37 -293 52 -211 97 -317 206 -482 60 -92 78 -114 183
-217 206 -204 456 -321 818 -383 62 -11 323 -14 385 -4 105 16 119 19 158 28
21 5 40 11 42 13 4 4 -62 83 -154 184 -42 46 -125 140 -183 206 -21 24 -31 27
-124 32 -128 7 -191 21 -279 59 -61 27 -190 100 -205 117 -3 3 -21 17 -40 31
-142 107 -275 294 -335 472 -67 202 -50 448 46 656 121 260 317 431 606 529
88 30 157 39 295 38 l120 -1 91 100 c51 55 130 139 176 188 52 53 81 91 75 96
-21 21 -174 59 -304 77 -74 10 -320 11 -398 2z"/>
<path d="M2209 2622 c-3 -9 -34 -44 -174 -196 -5 -6 -38 -41 -73 -77 l-63 -67
112 -83 c130 -98 206 -190 274 -333 68 -144 94 -252 100 -416 6 -153 -17 -249
-101 -417 -68 -135 -90 -166 -102 -146 -4 6 -84 90 -178 186 l-171 175 -163
-163 c-89 -89 -161 -168 -159 -174 2 -6 110 -120 239 -253 308 -317 448 -462
574 -597 l48 -52 97 95 c53 52 131 127 173 167 l78 73 -96 93 -96 93 43 56
c102 130 165 250 218 415 43 135 49 160 66 279 9 55 9 271 1 296 -3 11 -8 41
-11 68 -17 147 -97 374 -188 531 -94 163 -240 329 -359 408 -67 44 -85 52 -89
39z"/>
</g>
</svg>
